<svg width="38" height="78" viewBox="0 0 38 78" fill="none" xmlns="http://www.w3.org/2000/svg" xmlns:xlink="http://www.w3.org/1999/xlink">
<path d="M1.909,39.379L3.581,40.095C8.986,42.419 13.758,45.999 17.5,50.539L17.5,53L7,53C6.602,53 6.221,53.158 5.939,53.439C5.658,53.721 5.5,54.102 5.5,54.5L5.5,60.5C5.5,60.898 5.658,61.279 5.939,61.561C6.221,61.842 6.602,62 7,62L7.142,62L8.507,75.65C8.545,76.02 8.718,76.363 8.994,76.612C9.269,76.862 9.628,77 10,77L28,77C28.372,77 28.731,76.862 29.006,76.612C29.282,76.363 29.455,76.02 29.493,75.65L30.858,62L31,62C31.398,62 31.779,61.842 32.061,61.561C32.342,61.279 32.5,60.898 32.5,60.5L32.5,54.5C32.5,54.102 32.342,53.721 32.061,53.439C31.779,53.158 31.398,53 31,53L20.5,53L20.5,46.797C24.242,42.257 29.014,38.677 34.419,36.353L36.091,35.637C36.3,35.547 36.485,35.412 36.634,35.24C36.783,35.068 36.89,34.865 36.949,34.645C37.008,34.426 37.016,34.196 36.973,33.973C36.93,33.75 36.836,33.54 36.7,33.358L35.563,31.843C34.431,30.337 32.748,29.342 30.883,29.075C29.018,28.809 27.124,29.293 25.616,30.421L24.474,31.277C23.017,31.384 21.629,31.939 20.499,32.865L20.499,30.878C24.237,26.345 29.022,22.791 34.441,20.522L34.578,20.465C34.767,20.386 34.938,20.269 35.081,20.121C35.223,19.972 35.334,19.796 35.405,19.604C35.477,19.411 35.508,19.206 35.497,19C35.486,18.795 35.433,18.594 35.341,18.41L35.101,17.93C34.658,17.044 34.034,16.261 33.271,15.63C32.507,14.999 31.62,14.535 30.666,14.267C29.713,13.999 28.714,13.934 27.733,14.075C26.753,14.216 25.813,14.56 24.973,15.086L24.545,15.354C23.063,15.447 21.648,16.004 20.5,16.945L20.5,16.217C23.431,12.631 27.198,9.821 31.47,8.033L31.578,7.987C31.816,7.888 32.025,7.729 32.183,7.525C32.342,7.322 32.445,7.081 32.484,6.826C32.522,6.571 32.494,6.31 32.402,6.069C32.31,5.828 32.157,5.615 31.959,5.45L30.298,4.069C29.524,3.421 28.596,2.982 27.604,2.796C26.612,2.609 25.588,2.68 24.632,3.003L23.628,3.338C22.696,3.378 21.787,3.637 20.975,4.095C20.163,4.553 19.47,5.196 18.954,5.972L18.137,7.197C16.86,5.857 15.108,5.07 13.257,5.005L11.933,4.563C10.787,4.177 9.56,4.091 8.371,4.315C7.183,4.539 6.071,5.064 5.144,5.841L3.042,7.588C2.843,7.753 2.691,7.967 2.599,8.208C2.507,8.449 2.479,8.709 2.517,8.964C2.556,9.219 2.659,9.46 2.818,9.664C2.976,9.867 3.184,10.027 3.422,10.126L3.56,10.183C8.978,12.452 13.763,16.007 17.5,20.539L17.5,22.365C16.351,21.423 14.936,20.866 13.454,20.772L13.026,20.504C12.186,19.979 11.246,19.634 10.266,19.493C9.286,19.352 8.286,19.418 7.333,19.686C6.379,19.953 5.492,20.418 4.729,21.049C3.965,21.679 3.342,22.463 2.899,23.349L2.658,23.829C2.566,24.013 2.513,24.214 2.502,24.419C2.491,24.624 2.522,24.83 2.594,25.022C2.665,25.215 2.776,25.391 2.918,25.539C3.061,25.687 3.232,25.805 3.422,25.884L3.559,25.942C8.978,28.21 13.763,31.765 17.5,36.297L17.5,36.607C16.37,35.68 14.982,35.126 13.525,35.019L12.384,34.163C10.876,33.032 8.981,32.547 7.115,32.813C5.25,33.08 3.567,34.076 2.436,35.584L1.3,37.1C1.164,37.282 1.07,37.492 1.027,37.715C0.984,37.938 0.992,38.168 1.051,38.387C1.11,38.607 1.217,38.81 1.366,38.982C1.515,39.154 1.7,39.289 1.909,39.379ZM20.646,8.842L21.45,7.637C21.717,7.235 22.08,6.906 22.505,6.678C22.93,6.45 23.405,6.332 23.888,6.332C24.049,6.332 24.209,6.306 24.362,6.255L25.581,5.849C26.018,5.701 26.484,5.66 26.94,5.728C27.396,5.796 27.83,5.972 28.205,6.24C25.432,7.652 22.885,9.468 20.647,11.63L20.646,8.842ZM20.5,21.793L21.584,20.167C21.958,19.604 22.466,19.143 23.062,18.824C23.658,18.504 24.324,18.338 25,18.339C25.282,18.339 25.558,18.259 25.796,18.11L26.567,17.628C27.393,17.111 28.376,16.905 29.341,17.045C30.305,17.186 31.188,17.664 31.833,18.395C27.61,20.368 23.772,23.077 20.5,26.396L20.5,21.793ZM20.5,37.712L21.584,36.085C21.958,35.523 22.466,35.061 23.062,34.743C23.658,34.424 24.324,34.257 25,34.258C25.325,34.258 25.64,34.153 25.9,33.958L27.416,32.821C28.285,32.171 29.377,31.891 30.452,32.042C31.528,32.194 32.499,32.765 33.155,33.631C28.416,35.68 24.118,38.627 20.5,42.31L20.5,37.712ZM26.643,74L11.357,74L10.157,62L27.843,62L26.643,74ZM6.804,8.361L7.061,8.147C7.597,7.699 8.239,7.395 8.926,7.266C9.613,7.137 10.322,7.186 10.984,7.409L12.526,7.923C12.679,7.974 12.839,8 13,8C13.676,7.999 14.342,8.166 14.938,8.485C15.534,8.804 16.042,9.265 16.416,9.828L17.5,11.454L17.5,16.057C14.394,12.907 10.778,10.305 6.804,8.361ZM6.167,23.815C6.811,23.084 7.694,22.605 8.659,22.465C9.623,22.324 10.607,22.53 11.433,23.047L12.203,23.529C12.442,23.679 12.718,23.758 13,23.758C13.676,23.757 14.342,23.924 14.938,24.243C15.534,24.562 16.042,25.023 16.416,25.586L17.5,27.212L17.5,31.816C14.227,28.497 10.39,25.787 6.167,23.815L6.167,23.815ZM29.5,56L29.5,59L8.5,59L8.5,56L29.5,56ZM7.541,35.784C8.074,35.706 8.618,35.735 9.141,35.869C9.663,36.002 10.154,36.239 10.584,36.563L12.1,37.7C12.36,37.895 12.675,38 13,38C13.676,37.999 14.342,38.166 14.938,38.485C15.534,38.804 16.042,39.265 16.416,39.828L17.5,41.454L17.5,46.052C13.882,42.369 9.584,39.422 4.845,37.373C5.168,36.944 5.572,36.582 6.034,36.31C6.497,36.037 7.009,35.858 7.541,35.784Z" fill="#F1ACEE"/>
<path d="M33.01,3.5L36.01,3.5C36.408,3.5 36.79,3.342 37.071,3.061C37.352,2.779 37.51,2.398 37.51,2C37.51,1.602 37.352,1.221 37.071,0.939C36.79,0.658 36.408,0.5 36.01,0.5L33.01,0.5C32.613,0.5 32.231,0.658 31.95,0.939C31.669,1.221 31.51,1.602 31.51,2C31.51,2.398 31.669,2.779 31.95,3.061C32.231,3.342 32.613,3.5 33.01,3.5Z" fill="#F1ACEE"/>
<path d="M35.536,7.577L34.036,8.077C33.847,8.138 33.672,8.235 33.521,8.364C33.37,8.493 33.246,8.65 33.156,8.827C33.066,9.004 33.013,9.197 32.998,9.395C32.983,9.593 33.008,9.792 33.071,9.98C33.134,10.168 33.233,10.342 33.363,10.492C33.494,10.641 33.653,10.763 33.831,10.851C34.009,10.939 34.203,10.99 34.401,11.003C34.599,11.015 34.797,10.988 34.985,10.923L36.485,10.423C36.672,10.361 36.846,10.263 36.996,10.134C37.145,10.006 37.268,9.848 37.357,9.672C37.445,9.495 37.498,9.303 37.512,9.106C37.527,8.909 37.502,8.711 37.44,8.524C37.377,8.336 37.278,8.163 37.149,8.014C37.019,7.865 36.861,7.743 36.684,7.655C36.508,7.567 36.315,7.515 36.118,7.501C35.921,7.488 35.723,7.514 35.536,7.577Z" fill="#F1ACEE"/>
</svg>
