<svg width="46" height="90" viewBox="0 0 46 90" fill="none" xmlns="http://www.w3.org/2000/svg" xmlns:xlink="http://www.w3.org/1999/xlink">
<path d="M2.01,20C1.613,20 1.231,20.158 0.95,20.439C0.669,20.721 0.51,21.102 0.51,21.5C0.51,21.898 0.669,22.279 0.95,22.561C1.231,22.842 1.613,23 2.01,23C3.199,23.001 4.358,22.627 5.322,21.933C6.286,21.237 7.007,20.256 7.382,19.128L7.387,19.115L8.01,19.427L8.01,22.404C6.072,24.554 5.003,27.348 5.01,30.242L5.01,39.5C5.01,39.898 5.169,40.279 5.45,40.561C5.731,40.842 6.113,41 6.51,41L18.51,41C18.908,41 19.29,40.842 19.571,40.561C19.852,40.279 20.01,39.898 20.01,39.5L20.01,36.227L27.51,39.039L27.51,44C27.51,44.398 27.668,44.779 27.95,45.061C28.231,45.342 28.613,45.5 29.01,45.5L29.069,45.5L30.473,80.592L25.34,83.158C25.09,83.283 24.881,83.475 24.734,83.711C24.588,83.948 24.51,84.221 24.51,84.5L24.51,87.5C24.51,87.898 24.668,88.279 24.95,88.561C25.231,88.842 25.613,89 26.01,89L39.51,89C39.899,89 40.273,88.849 40.553,88.579C40.833,88.309 40.997,87.941 41.01,87.552L42.459,45.5L42.51,45.5C42.908,45.5 43.29,45.342 43.571,45.061C43.852,44.779 44.01,44.398 44.01,44L44.01,21.5C44.01,21.309 43.974,21.12 43.903,20.943L41.345,14.548C41.969,13.701 42.359,12.704 42.473,11.658L43.523,10.609C44.199,9.933 44.669,9.08 44.878,8.147C45.087,7.215 45.027,6.243 44.705,5.343C44.383,4.444 43.811,3.654 43.058,3.066C42.305,2.479 41.4,2.117 40.449,2.024L40.377,1.879C39.852,0.83 38.988,-0.012 37.926,-0.509C36.863,-1.006 35.664,-1.13 34.522,-0.86C33.38,-0.591 32.363,0.056 31.635,0.976C30.907,1.896 30.51,3.035 30.51,4.208L30.51,11C30.51,11.804 30.672,12.599 30.986,13.339C31.3,14.078 31.759,14.747 32.337,15.305L30.983,17.338L28.333,18.663C28.277,18.692 22.496,24.394 22.496,24.394L17.973,23.641C17.68,23.209 17.358,22.797 17.01,22.408L17.01,19.671L21.874,18.455C22.075,18.405 22.263,18.314 22.426,18.188C22.59,18.062 22.726,17.903 22.825,17.722C22.925,17.541 22.986,17.341 23.004,17.135C23.023,16.929 22.999,16.722 22.933,16.526L21.433,12.026C21.334,11.727 21.143,11.467 20.887,11.283C20.632,11.099 20.325,11 20.01,11L2.01,11C1.613,11 1.231,11.158 0.95,11.439C0.669,11.721 0.51,12.102 0.51,12.5L0.51,17C0.51,17.398 0.669,17.779 0.95,18.061C1.231,18.342 1.613,18.5 2.01,18.5L4.404,18.5C4.186,18.95 3.846,19.329 3.423,19.594C3,19.86 2.51,20 2.01,20ZM17.01,38L8.01,38L8.01,30.243C8.004,28.131 8.769,26.089 10.16,24.5L14.859,24.5C15.621,25.377 16.201,26.397 16.566,27.5L14.01,27.5C13.612,27.5 13.231,27.658 12.949,27.939C12.668,28.221 12.51,28.602 12.51,29L12.51,33.5C12.51,33.898 12.668,34.279 12.949,34.561C13.231,34.842 13.612,35 14.01,35L16.738,35L17.01,35.102L17.01,38ZM11.01,21.5L11.01,20L14.01,20L14.01,21.5L11.01,21.5ZM38.061,86L27.51,86L27.51,85.427L32.364,83L38.165,83L38.061,86ZM38.267,80L33.452,80L32.072,45.5L39.458,45.5L38.267,80ZM41.01,42.5L30.51,42.5L30.51,39.5L35.01,39.5C35.298,39.5 35.58,39.417 35.822,39.261C36.064,39.105 36.256,38.883 36.375,38.621L41.01,28.425L41.01,42.5ZM33.51,4.208C33.51,3.711 33.678,3.228 33.986,2.838C34.295,2.448 34.727,2.173 35.211,2.059C35.695,1.945 36.203,1.997 36.654,2.208C37.104,2.419 37.471,2.776 37.693,3.221L38.168,4.171C38.293,4.42 38.484,4.63 38.721,4.776C38.958,4.923 39.232,5 39.51,5L39.957,5C40.36,5.001 40.755,5.121 41.091,5.345C41.426,5.57 41.688,5.889 41.842,6.262C41.997,6.635 42.037,7.046 41.958,7.442C41.88,7.838 41.686,8.202 41.4,8.488L41.009,8.879L37.571,5.439C37.29,5.158 36.908,5 36.51,5L33.51,5L33.51,4.208ZM33.51,8L35.888,8L39.455,11.566C39.311,12.297 38.902,12.948 38.305,13.394C37.708,13.839 36.967,14.047 36.226,13.976C35.485,13.906 34.796,13.562 34.294,13.012C33.792,12.462 33.513,11.745 33.51,11L33.51,8ZM30.51,20.927L32.681,19.842C32.914,19.725 33.113,19.549 33.258,19.332L34.95,16.793C36.26,17.147 37.651,17.045 38.896,16.504L40.755,21.152C39.918,20.409 38.836,19.998 37.716,20L37.046,20C36.148,19.999 35.27,20.262 34.52,20.757C33.771,21.251 33.183,21.955 32.83,22.78L31.621,25.6L30.51,28.192L30.51,20.927ZM39.305,24.529L35.3,24.632L35.587,23.962C35.709,23.676 35.912,23.433 36.172,23.262C36.431,23.091 36.735,23 37.046,23L37.716,23C37.982,22.998 38.244,23.063 38.477,23.19C38.711,23.318 38.908,23.503 39.05,23.728C39.206,23.967 39.295,24.244 39.306,24.529L39.305,24.529ZM22.763,27.48C22.999,27.519 23.24,27.501 23.467,27.428C23.695,27.356 23.901,27.229 24.07,27.061L27.51,23.621L27.51,29.704L19.744,27.762C19.684,27.486 19.615,27.213 19.535,26.942L22.763,27.48ZM18.281,30.5C18.303,30.502 18.324,30.504 18.346,30.505L30.146,33.455C30.492,33.542 30.857,33.502 31.176,33.344C31.496,33.185 31.748,32.918 31.889,32.591L34.31,27.658L38.107,27.561L34.044,36.5L29.282,36.5L17.537,32.095C17.368,32.032 17.19,32 17.01,32L15.51,32L15.51,30.5L18.281,30.5ZM8.01,14L18.929,14L19.575,15.938L15.326,17L9.864,17L8.01,16.073L8.01,14ZM3.51,15.5L3.51,14L5.01,14L5.01,15.5L3.51,15.5Z" fill="#F1ACEE"/>
</svg>
